<svg width="23" height="23" viewBox="0 0 23 23" fill="none" xmlns="http://www.w3.org/2000/svg">
<path fill-rule="evenodd" clip-rule="evenodd" d="M11.4964 0C8.37415 0 7.98264 0.0132341 6.75643 0.0691825C5.53278 0.124994 4.69707 0.319353 3.96581 0.603567C3.20982 0.897319 2.5687 1.29042 1.92954 1.92954C1.29042 2.5687 0.897319 3.20982 0.603567 3.96581C0.319353 4.69707 0.124994 5.53278 0.0691825 6.75643C0.0132341 7.98264 0 8.37415 0 11.4964C0 14.6186 0.0132341 15.0101 0.0691825 16.2363C0.124994 17.46 0.319353 18.2957 0.603567 19.0269C0.897319 19.7829 1.29042 20.424 1.92954 21.0632C2.5687 21.7023 3.20982 22.0954 3.96581 22.3892C4.69707 22.6734 5.53278 22.8678 6.75643 22.9236C7.98264 22.9795 8.37415 22.9927 11.4964 22.9927C14.6186 22.9927 15.0101 22.9795 16.2363 22.9236C17.46 22.8678 18.2957 22.6734 19.0269 22.3892C19.7829 22.0954 20.424 21.7023 21.0632 21.0632C21.7023 20.424 22.0954 19.7829 22.3892 19.0269C22.6734 18.2957 22.8678 17.46 22.9236 16.2363C22.9795 15.0101 22.9927 14.6186 22.9927 11.4964C22.9927 8.37415 22.9795 7.98264 22.9236 6.75643C22.8678 5.53278 22.6734 4.69707 22.3892 3.96581C22.0954 3.20982 21.7023 2.5687 21.0632 1.92954C20.424 1.29042 19.7829 0.897319 19.0269 0.603567C18.2957 0.319353 17.46 0.124994 16.2363 0.0691825C15.0101 0.0132341 14.6186 0 11.4964 0ZM11.4964 2.07141C14.566 2.07141 14.9296 2.08314 16.1419 2.13845C17.2628 2.18956 17.8715 2.37685 18.2766 2.53429C18.8132 2.74284 19.1962 2.99196 19.5985 3.39428C20.0008 3.79655 20.2499 4.17952 20.4585 4.71614C20.6159 5.12124 20.8032 5.72997 20.8543 6.85085C20.9096 8.0631 20.9213 8.42672 20.9213 11.4964C20.9213 14.566 20.9096 14.9296 20.8543 16.1419C20.8032 17.2628 20.6159 17.8715 20.4585 18.2766C20.2499 18.8132 20.0008 19.1962 19.5985 19.5985C19.1962 20.0008 18.8132 20.2499 18.2766 20.4585C17.8715 20.6159 17.2628 20.8032 16.1419 20.8543C14.9298 20.9096 14.5663 20.9213 11.4964 20.9213C8.42649 20.9213 8.06296 20.9096 6.85085 20.8543C5.72997 20.8032 5.12124 20.6159 4.71614 20.4585C4.17952 20.2499 3.79655 20.0008 3.39428 19.5985C2.99201 19.1962 2.74284 18.8132 2.53429 18.2766C2.37685 17.8715 2.18956 17.2628 2.13845 16.1419C2.08314 14.9296 2.07141 14.566 2.07141 11.4964C2.07141 8.42672 2.08314 8.0631 2.13845 6.85085C2.18956 5.72997 2.37685 5.12124 2.53429 4.71614C2.74284 4.17952 2.99196 3.79655 3.39428 3.39428C3.79655 2.99196 4.17952 2.74284 4.71614 2.53429C5.12124 2.37685 5.72997 2.18956 6.85085 2.13845C8.0631 2.08314 8.42672 2.07141 11.4964 2.07141Z" fill="#7F3FD1"/>
<path fill-rule="evenodd" clip-rule="evenodd" d="M12 15.8874C9.84898 15.8874 8.10526 14.1437 8.10526 11.9927C8.10526 9.84166 9.84898 8.09794 12 8.09794C14.151 8.09794 15.8947 9.84166 15.8947 11.9927C15.8947 14.1437 14.151 15.8874 12 15.8874ZM12 5.99268C8.68627 5.99268 6 8.67895 6 11.9927C6 15.3064 8.68627 17.9927 12 17.9927C15.3137 17.9927 18 15.3064 18 11.9927C18 8.67895 15.3137 5.99268 12 5.99268Z" fill="#7F3FD1"/>
<path fill-rule="evenodd" clip-rule="evenodd" d="M19 5.4927C19 6.32114 18.3284 6.99268 17.5 6.99268C16.6716 6.99268 16 6.32114 16 5.4927C16 4.66427 16.6716 3.99268 17.5 3.99268C18.3284 3.99268 19 4.66427 19 5.4927Z" fill="#7F3FD1"/>
</svg>
