<svg width="133" height="25" xmlns="http://www.w3.org/2000/svg" xmlns:xlink="http://www.w3.org/1999/xlink"><defs><path id="a" d="M0 0h133v25H0z"></path></defs><g fill="none" fill-rule="evenodd"><mask id="b" fill="#fff"><use xlink:href="#a"></use></mask><path d="M123.144 20.943c-1.21 0-2.153-.335-2.831-1.006-.678-.67-1.017-1.582-1.017-2.736 0-1.09.209-2.054.626-2.893a4.774 4.774 0 0 1 1.752-1.965c.751-.472 1.606-.708 2.565-.708 1.21 0 2.148.336 2.816 1.006.667.672 1.001 1.584 1.001 2.736 0 1.091-.208 2.056-.625 2.893a4.78 4.78 0 0 1-1.753 1.966c-.76.474-1.639.72-2.534.707zM122.832 25c1.94 0 3.686-.43 5.24-1.29 1.554-.86 2.764-2.033 3.63-3.522.865-1.488 1.298-3.165 1.298-5.03 0-1.51-.35-2.836-1.049-3.979-.699-1.142-1.684-2.028-2.956-2.657-1.273-.63-2.764-.944-4.474-.943-1.94 0-3.681.43-5.225 1.29a9.482 9.482 0 0 0-3.63 3.521c-.875 1.489-1.313 3.166-1.313 5.031 0 1.51.35 2.835 1.048 3.978.699 1.143 1.69 2.029 2.972 2.658 1.283.629 2.77.943 4.459.943zM111.569 5.472c.959 0 1.741-.278 2.346-.833.605-.556.908-1.284.908-2.186 0-.692-.266-1.273-.798-1.745-.532-.471-1.226-.708-2.081-.708-.96 0-1.737.278-2.33.833-.596.556-.893 1.254-.893 2.092-.01.69.282 1.351.798 1.808.532.493 1.215.74 2.05.74zm-6.602 19.276h4.85l3.347-16.917h-4.85l-3.347 16.917zM99.304 25c.85.01 1.668-.324 2.269-.928.635-.618.953-1.399.954-2.343 0-.838-.266-1.52-.798-2.043-.532-.524-1.215-.786-2.05-.786-.917 0-1.69.303-2.315.911-.625.609-.938 1.395-.938 2.358 0 .818.271 1.494.813 2.029.543.534 1.23.802 2.065.802zM91.452 11.98h4.192l.75-3.773h-4.192l.814-4.12h-4.881l-.814 4.12h-2.596l-.751 3.773h2.596l-1.345 6.824c-.096.487-.149.982-.156 1.478 0 1.467.48 2.62 1.439 3.459.96.838 2.232 1.258 3.817 1.258 1.71 0 3.107-.336 4.193-1.006l-.72-3.49c-.668.397-1.325.596-1.971.597-1.189 0-1.784-.546-1.784-1.636a2.973 2.973 0 0 1 .063-.691l1.346-6.793zm-17.271-.723c1.147 0 2.06.31 2.738.928.678.618 1.017 1.473 1.017 2.562h-8.354c.333-1.09.896-1.943 1.69-2.562.792-.618 1.762-.928 2.909-.928zm8.229 3.773c0-1.488-.329-2.798-.986-3.93a6.591 6.591 0 0 0-2.784-2.61c-1.2-.608-2.613-.912-4.24-.912-1.919 0-3.63.424-5.13 1.273a9.113 9.113 0 0 0-3.52 3.522c-.845 1.5-1.268 3.182-1.268 5.047 0 1.51.35 2.84 1.048 3.994.699 1.153 1.7 2.039 3.004 2.657 1.303.619 2.82.928 4.552.928 1.294.006 2.58-.185 3.817-.566a9.701 9.701 0 0 0 3.223-1.698l-2.034-3.24c-.604.516-1.3.91-2.05 1.164-.79.274-1.62.412-2.455.409-2.733 0-4.183-1.153-4.35-3.459h12.891c.177-.848.272-1.712.282-2.579zm-16.082-7.2h-6.35l-8.073 6.635 2.597-13.05h-4.881l-4.63 23.332h4.88l.814-4.088 2.972-2.484 4.004 6.572h5.664l-5.788-9.56 8.791-7.357zM35.824 25c1.71 0 3.268-.357 4.677-1.07 1.408-.712 2.518-1.708 3.332-2.987l-3.598-2.264c-.96 1.51-2.336 2.264-4.13 2.264-1.23 0-2.19-.34-2.878-1.022-.688-.68-1.033-1.598-1.033-2.751 0-1.07.214-2.023.642-2.862a4.846 4.846 0 0 1 1.783-1.965c.761-.472 1.622-.708 2.581-.708 1.773 0 3.024.765 3.754 2.296l4.13-2.076a7.027 7.027 0 0 0-2.925-3.16c-1.304-.744-2.852-1.116-4.646-1.116-1.961 0-3.723.43-5.287 1.29-1.564.859-2.784 2.033-3.661 3.521-.876 1.489-1.314 3.166-1.314 5.031 0 1.51.35 2.835 1.048 3.978.699 1.143 1.694 2.029 2.988 2.658 1.293.629 2.806.943 4.537.943zM24.467 5.472c.96 0 1.741-.278 2.346-.833.605-.556.908-1.284.908-2.186 0-.692-.266-1.273-.798-1.745C26.391.236 25.697 0 24.843 0c-.96 0-1.737.278-2.332.833-.594.556-.892 1.253-.892 2.092a2.37 2.37 0 0 0 .798 1.808c.532.493 1.216.74 2.05.74zm-6.602 19.276h4.85l3.347-16.917h-4.85l-3.347 16.917zm.219-16.917H3.629l-.75 3.773h8.103L.595 21.792 0 24.748h15.018l.75-3.773H7.135L17.52 10.786l.563-2.955z" fill="#FFF" mask="url(#b)"></path></g></svg>
